<svg xmlns="http://www.w3.org/2000/svg"><symbol id="search" viewBox="0 0 24 24"><circle cx="10.5" cy="10.5" r="6.5"/><path d="m16 16 5 5"/></symbol><symbol id="close" viewBox="0 0 24 24"><path d="m6 6 12 12M18 6 6 18"/></symbol><symbol id="add" viewBox="0 0 24 24"><path d="M12 4v16M4 12h16"/></symbol><symbol id="check" viewBox="0 0 24 24"><path d="m4 12 5 5L20 6"/></symbol><symbol id="edit" viewBox="0 0 24 24"><path d="m4 16 12-12 4 4L8 20H4zM14 6l4 4"/></symbol><symbol id="delete" viewBox="0 0 24 24"><path d="M4 7h16M9 7V4h6v3M6 7l1 13h10l1-13M10 10v7M14 10v7"/></symbol><symbol id="info" viewBox="0 0 24 24"><circle cx="12" cy="12" r="9"/><path d="M12 11v6M12 7v.1"/></symbol><symbol id="warning" viewBox="0 0 24 24"><path d="m12 3 10 18H2zM12 9v5M12 17v.1"/></symbol><symbol id="chevron-down" viewBox="0 0 24 24"><path d="m5 9 7 7 7-7"/></symbol><symbol id="external" viewBox="0 0 24 24"><path d="M14 3h7v7M21 3 11 13M10 4H4v16h16v-6"/></symbol><symbol id="menu" viewBox="0 0 24 24"><path d="M4 6h16M4 12h16M4 18h16"/></symbol><symbol id="upload" viewBox="0 0 24 24"><path d="M12 16V3m-5 5 5-5 5 5M4 16v5h16v-5"/></symbol><symbol id="download" viewBox="0 0 24 24"><path d="M12 3v13m-5-5 5 5 5-5M4 17v4h16v-4"/></symbol><symbol id="heart" viewBox="0 0 24 24"><path d="M12 20 3 11C-1 3 9 1 12 7c3-6 13-4 9 4z"/></symbol></svg>